<?xml version="1.0" standalone="no"?><svg xmlns="http://www.w3.org/2000/svg" viewBox="0 0 1440 320"><path fill="#ffffff" d="M0,192L20,202.7C40,213,80,235,120,213.3C160,192,200,128,240,112C280,96,320,128,360,138.7C400,149,440,139,480,138.7C520,139,560,149,600,128C640,107,680,53,720,53.3C760,53,800,107,840,112C880,117,920,75,960,69.3C1000,64,1040,96,1080,138.7C1120,181,1160,235,1200,224C1240,213,1280,139,1320,117.3C1360,96,1400,128,1420,144L1440,160L1440,0L1420,0C1400,0,1360,0,1320,0C1280,0,1240,0,1200,0C1160,0,1120,0,1080,0C1040,0,1000,0,960,0C920,0,880,0,840,0C800,0,760,0,720,0C680,0,640,0,600,0C560,0,520,0,480,0C440,0,400,0,360,0C320,0,280,0,240,0C200,0,160,0,120,0C80,0,40,0,20,0L0,0Z"></path></svg>